<mxfile host="Electron" modified="2024-03-07T05:31:19.122Z" agent="Mozilla/5.0 (X11; Linux x86_64) AppleWebKit/537.36 (KHTML, like Gecko) draw.io/23.1.5 Chrome/120.0.6099.109 Electron/28.1.0 Safari/537.36" etag="i4O_Ex1xC4cIpOKUhAlo" version="23.1.5" type="device">
  <diagram name="Page-1" id="okQUsLcCIn6qNMJXYvbM">
    <mxGraphModel dx="4580" dy="1203" grid="1" gridSize="10" guides="1" tooltips="1" connect="1" arrows="1" fold="1" page="1" pageScale="1" pageWidth="850" pageHeight="1100" math="0" shadow="0">
      <root>
        <mxCell id="0" />
        <mxCell id="1" parent="0" />
        <mxCell id="kIwbbH5RVKz2Qo08tBOi-26" value="&lt;font style=&quot;font-size: 48px;&quot;&gt;Distributed NVMe&lt;br&gt;Control Plane&lt;/font&gt;" style="rounded=1;whiteSpace=wrap;html=1;verticalAlign=bottom;strokeWidth=2;" parent="1" vertex="1">
          <mxGeometry x="-570" y="630" width="390" height="440" as="geometry" />
        </mxCell>
        <mxCell id="W3r3Beb9pAFpKh9yh-J--22" value="&lt;font style=&quot;font-size: 48px;&quot;&gt;Distributed NVMe Data Plane&lt;/font&gt;" style="rounded=1;whiteSpace=wrap;html=1;verticalAlign=bottom;strokeWidth=2;" parent="1" vertex="1">
          <mxGeometry x="-1440" y="630" width="840" height="440" as="geometry" />
        </mxCell>
        <mxCell id="W3r3Beb9pAFpKh9yh-J--1" value="&lt;font style=&quot;font-size: 24px;&quot;&gt;Controller&lt;br&gt;Node&lt;/font&gt;" style="rounded=1;whiteSpace=wrap;html=1;" parent="1" vertex="1">
          <mxGeometry x="-1380" y="690" width="120" height="60" as="geometry" />
        </mxCell>
        <mxCell id="W3r3Beb9pAFpKh9yh-J--2" value="&lt;font style=&quot;font-size: 24px;&quot;&gt;Controller&lt;br&gt;Node&lt;/font&gt;" style="rounded=1;whiteSpace=wrap;html=1;" parent="1" vertex="1">
          <mxGeometry x="-1200" y="690" width="120" height="60" as="geometry" />
        </mxCell>
        <mxCell id="W3r3Beb9pAFpKh9yh-J--3" value="" style="endArrow=none;dashed=1;html=1;dashPattern=1 3;strokeWidth=5;rounded=0;exitX=1;exitY=0.5;exitDx=0;exitDy=0;entryX=0;entryY=0.5;entryDx=0;entryDy=0;" parent="1" source="W3r3Beb9pAFpKh9yh-J--2" target="W3r3Beb9pAFpKh9yh-J--4" edge="1">
          <mxGeometry width="50" height="50" relative="1" as="geometry">
            <mxPoint x="-880" y="620" as="sourcePoint" />
            <mxPoint x="-830" y="570" as="targetPoint" />
          </mxGeometry>
        </mxCell>
        <mxCell id="W3r3Beb9pAFpKh9yh-J--4" value="&lt;font style=&quot;font-size: 24px;&quot;&gt;Controller&lt;br&gt;Node&lt;/font&gt;" style="rounded=1;whiteSpace=wrap;html=1;" parent="1" vertex="1">
          <mxGeometry x="-960" y="690" width="120" height="60" as="geometry" />
        </mxCell>
        <mxCell id="W3r3Beb9pAFpKh9yh-J--6" value="&lt;font style=&quot;font-size: 24px;&quot;&gt;Controller&lt;br&gt;Node&lt;/font&gt;" style="rounded=1;whiteSpace=wrap;html=1;" parent="1" vertex="1">
          <mxGeometry x="-780" y="690" width="120" height="60" as="geometry" />
        </mxCell>
        <mxCell id="W3r3Beb9pAFpKh9yh-J--8" value="&lt;font style=&quot;font-size: 24px;&quot;&gt;Disk&lt;br&gt;Node&lt;/font&gt;" style="rounded=1;whiteSpace=wrap;html=1;" parent="1" vertex="1">
          <mxGeometry x="-1380" y="810" width="120" height="60" as="geometry" />
        </mxCell>
        <mxCell id="W3r3Beb9pAFpKh9yh-J--9" value="&lt;font style=&quot;font-size: 24px;&quot;&gt;Disk&lt;br&gt;Node&lt;/font&gt;" style="rounded=1;whiteSpace=wrap;html=1;" parent="1" vertex="1">
          <mxGeometry x="-1200" y="810" width="120" height="60" as="geometry" />
        </mxCell>
        <mxCell id="W3r3Beb9pAFpKh9yh-J--10" value="" style="endArrow=none;dashed=1;html=1;dashPattern=1 3;strokeWidth=5;rounded=0;exitX=1;exitY=0.5;exitDx=0;exitDy=0;entryX=0;entryY=0.5;entryDx=0;entryDy=0;" parent="1" source="W3r3Beb9pAFpKh9yh-J--9" target="W3r3Beb9pAFpKh9yh-J--11" edge="1">
          <mxGeometry width="50" height="50" relative="1" as="geometry">
            <mxPoint x="-880" y="740" as="sourcePoint" />
            <mxPoint x="-830" y="690" as="targetPoint" />
          </mxGeometry>
        </mxCell>
        <mxCell id="W3r3Beb9pAFpKh9yh-J--11" value="&lt;font style=&quot;font-size: 24px;&quot;&gt;Disk&lt;br&gt;Node&lt;/font&gt;" style="rounded=1;whiteSpace=wrap;html=1;" parent="1" vertex="1">
          <mxGeometry x="-960" y="810" width="120" height="60" as="geometry" />
        </mxCell>
        <mxCell id="W3r3Beb9pAFpKh9yh-J--12" value="&lt;font style=&quot;font-size: 24px;&quot;&gt;Disk&lt;br&gt;Node&lt;/font&gt;" style="rounded=1;whiteSpace=wrap;html=1;" parent="1" vertex="1">
          <mxGeometry x="-780" y="810" width="120" height="60" as="geometry" />
        </mxCell>
        <mxCell id="W3r3Beb9pAFpKh9yh-J--13" value="&lt;font style=&quot;font-size: 24px;&quot;&gt;Physical&lt;br&gt;Disk&lt;/font&gt;" style="shape=cylinder3;whiteSpace=wrap;html=1;boundedLbl=1;backgroundOutline=1;size=15;" parent="1" vertex="1">
          <mxGeometry x="-1380" y="900" width="120" height="80" as="geometry" />
        </mxCell>
        <mxCell id="W3r3Beb9pAFpKh9yh-J--15" value="&lt;font style=&quot;font-size: 24px;&quot;&gt;Physical&lt;br&gt;Disk&lt;/font&gt;" style="shape=cylinder3;whiteSpace=wrap;html=1;boundedLbl=1;backgroundOutline=1;size=15;" parent="1" vertex="1">
          <mxGeometry x="-1200" y="900" width="120" height="80" as="geometry" />
        </mxCell>
        <mxCell id="W3r3Beb9pAFpKh9yh-J--16" value="&lt;font style=&quot;font-size: 24px;&quot;&gt;Physical&lt;br&gt;Disk&lt;/font&gt;" style="shape=cylinder3;whiteSpace=wrap;html=1;boundedLbl=1;backgroundOutline=1;size=15;" parent="1" vertex="1">
          <mxGeometry x="-780" y="900" width="120" height="80" as="geometry" />
        </mxCell>
        <mxCell id="W3r3Beb9pAFpKh9yh-J--17" value="&lt;font style=&quot;font-size: 24px;&quot;&gt;Physical&lt;br&gt;Disk&lt;/font&gt;" style="shape=cylinder3;whiteSpace=wrap;html=1;boundedLbl=1;backgroundOutline=1;size=15;" parent="1" vertex="1">
          <mxGeometry x="-960" y="900" width="120" height="80" as="geometry" />
        </mxCell>
        <mxCell id="W3r3Beb9pAFpKh9yh-J--18" value="" style="endArrow=classic;html=1;rounded=0;exitX=0.5;exitY=0;exitDx=0;exitDy=0;exitPerimeter=0;entryX=0.5;entryY=1;entryDx=0;entryDy=0;strokeWidth=5;" parent="1" source="W3r3Beb9pAFpKh9yh-J--13" target="W3r3Beb9pAFpKh9yh-J--8" edge="1">
          <mxGeometry width="50" height="50" relative="1" as="geometry">
            <mxPoint x="-1470" y="940" as="sourcePoint" />
            <mxPoint x="-1420" y="890" as="targetPoint" />
          </mxGeometry>
        </mxCell>
        <mxCell id="W3r3Beb9pAFpKh9yh-J--19" value="" style="endArrow=classic;html=1;rounded=0;entryX=0.5;entryY=1;entryDx=0;entryDy=0;exitX=0.5;exitY=0;exitDx=0;exitDy=0;exitPerimeter=0;strokeWidth=5;" parent="1" source="W3r3Beb9pAFpKh9yh-J--16" edge="1">
          <mxGeometry width="50" height="50" relative="1" as="geometry">
            <mxPoint x="-330" y="840" as="sourcePoint" />
            <mxPoint x="-720.5" y="870" as="targetPoint" />
          </mxGeometry>
        </mxCell>
        <mxCell id="W3r3Beb9pAFpKh9yh-J--20" value="" style="endArrow=classic;html=1;rounded=0;entryX=0.5;entryY=1;entryDx=0;entryDy=0;strokeWidth=5;" parent="1" source="W3r3Beb9pAFpKh9yh-J--17" edge="1">
          <mxGeometry width="50" height="50" relative="1" as="geometry">
            <mxPoint x="-360" y="870" as="sourcePoint" />
            <mxPoint x="-900.5" y="870" as="targetPoint" />
          </mxGeometry>
        </mxCell>
        <mxCell id="W3r3Beb9pAFpKh9yh-J--21" value="" style="endArrow=classic;html=1;rounded=0;entryX=0.5;entryY=1;entryDx=0;entryDy=0;strokeWidth=5;" parent="1" source="W3r3Beb9pAFpKh9yh-J--15" edge="1">
          <mxGeometry width="50" height="50" relative="1" as="geometry">
            <mxPoint x="-1600" y="800" as="sourcePoint" />
            <mxPoint x="-1140.5" y="870" as="targetPoint" />
          </mxGeometry>
        </mxCell>
        <mxCell id="W3r3Beb9pAFpKh9yh-J--28" value="&lt;span style=&quot;font-size: 24px;&quot;&gt;Host&lt;/span&gt;" style="rounded=1;whiteSpace=wrap;html=1;" parent="1" vertex="1">
          <mxGeometry x="-1380" y="510" width="120" height="60" as="geometry" />
        </mxCell>
        <mxCell id="W3r3Beb9pAFpKh9yh-J--29" value="&lt;span style=&quot;font-size: 24px;&quot;&gt;Host&lt;/span&gt;" style="rounded=1;whiteSpace=wrap;html=1;" parent="1" vertex="1">
          <mxGeometry x="-1200" y="510" width="120" height="60" as="geometry" />
        </mxCell>
        <mxCell id="W3r3Beb9pAFpKh9yh-J--30" value="" style="endArrow=none;dashed=1;html=1;dashPattern=1 3;strokeWidth=5;rounded=0;exitX=1;exitY=0.5;exitDx=0;exitDy=0;entryX=0;entryY=0.5;entryDx=0;entryDy=0;" parent="1" source="W3r3Beb9pAFpKh9yh-J--29" target="W3r3Beb9pAFpKh9yh-J--31" edge="1">
          <mxGeometry width="50" height="50" relative="1" as="geometry">
            <mxPoint x="-880" y="440" as="sourcePoint" />
            <mxPoint x="-830" y="390" as="targetPoint" />
          </mxGeometry>
        </mxCell>
        <mxCell id="W3r3Beb9pAFpKh9yh-J--31" value="&lt;span style=&quot;font-size: 24px;&quot;&gt;Host&lt;/span&gt;" style="rounded=1;whiteSpace=wrap;html=1;" parent="1" vertex="1">
          <mxGeometry x="-960" y="510" width="120" height="60" as="geometry" />
        </mxCell>
        <mxCell id="W3r3Beb9pAFpKh9yh-J--32" value="&lt;span style=&quot;font-size: 24px;&quot;&gt;Host&lt;/span&gt;" style="rounded=1;whiteSpace=wrap;html=1;" parent="1" vertex="1">
          <mxGeometry x="-780" y="510" width="120" height="60" as="geometry" />
        </mxCell>
        <mxCell id="kIwbbH5RVKz2Qo08tBOi-1" value="&lt;font style=&quot;font-size: 36px;&quot;&gt;etcd&lt;/font&gt;" style="shape=cylinder;whiteSpace=wrap;html=1;boundedLbl=1;backgroundOutline=1;" parent="1" vertex="1">
          <mxGeometry x="-360" y="760" width="120" height="120" as="geometry" />
        </mxCell>
        <mxCell id="kIwbbH5RVKz2Qo08tBOi-4" value="&lt;span style=&quot;font-size: 24px;&quot;&gt;CP&lt;br&gt;Server&lt;br&gt;&lt;/span&gt;" style="rounded=1;whiteSpace=wrap;html=1;" parent="1" vertex="1">
          <mxGeometry x="-540" y="690" width="120" height="60" as="geometry" />
        </mxCell>
        <mxCell id="kIwbbH5RVKz2Qo08tBOi-6" value="&lt;span style=&quot;font-size: 24px;&quot;&gt;CP&lt;br&gt;Server&lt;br&gt;&lt;/span&gt;" style="rounded=1;whiteSpace=wrap;html=1;" parent="1" vertex="1">
          <mxGeometry x="-540" y="840" width="120" height="60" as="geometry" />
        </mxCell>
        <mxCell id="kIwbbH5RVKz2Qo08tBOi-10" value="" style="endArrow=classic;html=1;rounded=0;exitX=0;exitY=0.5;exitDx=0;exitDy=0;entryX=1;entryY=0.75;entryDx=0;entryDy=0;strokeWidth=5;strokeColor=#8b3d13;" parent="1" source="kIwbbH5RVKz2Qo08tBOi-6" target="W3r3Beb9pAFpKh9yh-J--6" edge="1">
          <mxGeometry width="50" height="50" relative="1" as="geometry">
            <mxPoint x="-330" y="590" as="sourcePoint" />
            <mxPoint x="-280" y="540" as="targetPoint" />
          </mxGeometry>
        </mxCell>
        <mxCell id="kIwbbH5RVKz2Qo08tBOi-11" value="" style="endArrow=classic;html=1;rounded=0;exitX=0;exitY=0.5;exitDx=0;exitDy=0;entryX=1;entryY=0.75;entryDx=0;entryDy=0;strokeWidth=5;strokeColor=#8b3d13;align=center;verticalAlign=middle;fontFamily=Helvetica;fontSize=11;fontColor=default;labelBackgroundColor=default;" parent="1" source="kIwbbH5RVKz2Qo08tBOi-6" target="W3r3Beb9pAFpKh9yh-J--12" edge="1">
          <mxGeometry width="50" height="50" relative="1" as="geometry">
            <mxPoint x="-320" y="600" as="sourcePoint" />
            <mxPoint x="-270" y="550" as="targetPoint" />
          </mxGeometry>
        </mxCell>
        <mxCell id="kIwbbH5RVKz2Qo08tBOi-13" value="" style="endArrow=classic;html=1;rounded=0;exitX=0;exitY=0.5;exitDx=0;exitDy=0;entryX=1;entryY=0.5;entryDx=0;entryDy=0;strokeWidth=5;strokeColor=#8b3d13;" parent="1" source="kIwbbH5RVKz2Qo08tBOi-4" target="W3r3Beb9pAFpKh9yh-J--6" edge="1">
          <mxGeometry width="50" height="50" relative="1" as="geometry">
            <mxPoint x="-300" y="620" as="sourcePoint" />
            <mxPoint x="-250" y="570" as="targetPoint" />
          </mxGeometry>
        </mxCell>
        <mxCell id="kIwbbH5RVKz2Qo08tBOi-18" value="" style="endArrow=classic;html=1;rounded=0;exitX=0;exitY=0.5;exitDx=0;exitDy=0;entryX=1;entryY=0.25;entryDx=0;entryDy=0;strokeWidth=5;strokeColor=#8b3d13;" parent="1" source="kIwbbH5RVKz2Qo08tBOi-4" target="W3r3Beb9pAFpKh9yh-J--12" edge="1">
          <mxGeometry width="50" height="50" relative="1" as="geometry">
            <mxPoint x="-300" y="620" as="sourcePoint" />
            <mxPoint x="-250" y="570" as="targetPoint" />
          </mxGeometry>
        </mxCell>
        <mxCell id="kIwbbH5RVKz2Qo08tBOi-22" value="" style="endArrow=none;dashed=1;html=1;dashPattern=1 3;strokeWidth=5;rounded=0;exitX=0.5;exitY=1;exitDx=0;exitDy=0;entryX=0.5;entryY=0;entryDx=0;entryDy=0;" parent="1" source="kIwbbH5RVKz2Qo08tBOi-4" target="kIwbbH5RVKz2Qo08tBOi-6" edge="1">
          <mxGeometry width="50" height="50" relative="1" as="geometry">
            <mxPoint x="-460" y="520" as="sourcePoint" />
            <mxPoint x="-340" y="520" as="targetPoint" />
          </mxGeometry>
        </mxCell>
        <mxCell id="kIwbbH5RVKz2Qo08tBOi-24" value="" style="endArrow=classic;startArrow=classic;html=1;rounded=0;exitX=1;exitY=0.5;exitDx=0;exitDy=0;entryX=0;entryY=0.5;entryDx=0;entryDy=0;strokeWidth=5;strokeColor=#8b3d13;align=center;verticalAlign=middle;fontFamily=Helvetica;fontSize=11;fontColor=default;labelBackgroundColor=default;" parent="1" source="kIwbbH5RVKz2Qo08tBOi-4" target="kIwbbH5RVKz2Qo08tBOi-1" edge="1">
          <mxGeometry width="50" height="50" relative="1" as="geometry">
            <mxPoint x="-240" y="570" as="sourcePoint" />
            <mxPoint x="-190" y="520" as="targetPoint" />
          </mxGeometry>
        </mxCell>
        <mxCell id="kIwbbH5RVKz2Qo08tBOi-25" value="" style="endArrow=classic;startArrow=classic;html=1;rounded=0;exitX=1;exitY=0.5;exitDx=0;exitDy=0;entryX=0;entryY=0.5;entryDx=0;entryDy=0;strokeWidth=5;strokeColor=#8b3d13;align=center;verticalAlign=middle;fontFamily=Helvetica;fontSize=11;fontColor=default;labelBackgroundColor=default;" parent="1" source="kIwbbH5RVKz2Qo08tBOi-6" target="kIwbbH5RVKz2Qo08tBOi-1" edge="1">
          <mxGeometry width="50" height="50" relative="1" as="geometry">
            <mxPoint x="-440" y="460" as="sourcePoint" />
            <mxPoint x="-390" y="410" as="targetPoint" />
          </mxGeometry>
        </mxCell>
      </root>
    </mxGraphModel>
  </diagram>
</mxfile>
